<?plantuml 1.2026.2beta3?><svg xmlns="http://www.w3.org/2000/svg" xmlns:xlink="http://www.w3.org/1999/xlink" contentStyleType="text/css" data-diagram-type="ACTIVITY" height="1205px" preserveAspectRatio="none" style="width:809px;height:1205px;background:#FFFFFF;" version="1.1" viewBox="0 0 809 1205" width="809px" zoomAndPan="magnify"><title>DSPy Workflow: From Experiment to Production (Sentiment Analysis)</title><defs/><g><rect fill="#FFFFCC" height="26.6406" rx="2.5" ry="2.5" style="stroke:#FFDD88;stroke-width:3;" width="798.479" x="5" y="5"/><text fill="#000000" font-family="monospace" font-size="10" lengthAdjust="spacing" textLength="355.21" x="10" y="20">Please&#160;use&#160;'!option&#160;handwritten&#160;true'&#160;to&#160;enable&#160;handwritten</text><g class="title" data-source-line="8"><text fill="#000000" font-family="sans-serif" font-size="14" font-weight="bold" lengthAdjust="spacing" textLength="549.4248" x="121.0271" y="69.6357">DSPy Workflow: From Experiment to Production (Sentiment Analysis)</text></g><rect fill="none" height="132.3828" style="stroke:#000000;stroke-width:1.5;" width="571.1245" x="189.9102" y="84.9375"/><path d="M303.0918,84.9375 L303.0918,94.2344 L293.0918,104.2344 L189.9102,104.2344" fill="none" style="stroke:#000000;stroke-width:1.5;"/><text fill="#000000" font-family="sans-serif" font-size="14" lengthAdjust="spacing" textLength="103.1816" x="192.9102" y="98.9326">1. Initialization</text><rect fill="#F0F4F8" height="33.9688" rx="12.5" ry="12.5" style="stroke:#2C3E50;stroke-width:0.5;" width="228.3652" x="216.4424" y="114.2344"/><text fill="#000000" font-family="sans-serif" font-size="12" lengthAdjust="spacing" textLength="208.3652" x="226.4424" y="135.373">Load Environment Variables (.env)</text><path d="M481.3398,165.0547 L481.3398,181.1875 L461.3398,185.1875 L481.3398,189.1875 L481.3398,205.3203 A0,0 0 0 0 481.3398,205.3203 L751.0347,205.3203 A0,0 0 0 0 751.0347,205.3203 L751.0347,175.0547 L741.0347,165.0547 L481.3398,165.0547 A0,0 0 0 0 481.3398,165.0547" fill="#FEFFDD" style="stroke:#181818;stroke-width:0.5;"/><path d="M741.0347,165.0547 L741.0347,175.0547 L751.0347,175.0547 L741.0347,165.0547" fill="#FEFFDD" style="stroke:#181818;stroke-width:0.5;"/><text fill="#000000" font-family="sans-serif" font-size="13" lengthAdjust="spacing" textLength="150.0522" x="487.3398" y="182.1216">dspy.configure(lm=lm)</text><text fill="#000000" font-family="sans-serif" font-size="13" lengthAdjust="spacing" textLength="248.6948" x="487.3398" y="197.2544">Sets the "brain" for the entire pipeline</text><rect fill="#F0F4F8" height="33.9688" rx="12.5" ry="12.5" style="stroke:#2C3E50;stroke-width:0.5;" width="261.4297" x="199.9102" y="168.2031"/><text fill="#000000" font-family="sans-serif" font-size="12" lengthAdjust="spacing" textLength="241.4297" x="209.9102" y="189.3418">Configure LLM (gemini/gemma-3-12b-it)</text><rect fill="none" height="264.8984" style="stroke:#000000;stroke-width:1.5;" width="772.479" x="11" y="227.3203"/><path d="M273.082,227.3203 L273.082,236.6172 L263.082,246.6172 L11,246.6172" fill="none" style="stroke:#000000;stroke-width:1.5;"/><text fill="#000000" font-family="sans-serif" font-size="14" lengthAdjust="spacing" textLength="252.082" x="14" y="241.3154">2. The Experiment (Learning Phase)</text><path d="M457.7119,263.4688 L457.7119,279.6016 L437.7119,283.6016 L457.7119,287.6016 L457.7119,303.7344 A0,0 0 0 0 457.7119,303.7344 L749.9155,303.7344 A0,0 0 0 0 749.9155,303.7344 L749.9155,273.4688 L739.9155,263.4688 L457.7119,263.4688 A0,0 0 0 0 457.7119,263.4688" fill="#FEFFDD" style="stroke:#181818;stroke-width:0.5;"/><path d="M739.9155,263.4688 L739.9155,273.4688 L749.9155,273.4688 L739.9155,263.4688" fill="#FEFFDD" style="stroke:#181818;stroke-width:0.5;"/><text fill="#000000" font-family="sans-serif" font-size="13" lengthAdjust="spacing" textLength="206.8384" x="463.7119" y="280.5356">"text -&gt; sentiment, confidence"</text><text fill="#000000" font-family="sans-serif" font-size="13" lengthAdjust="spacing" textLength="271.2036" x="463.7119" y="295.6685">(Defining WHAT we want, not how to ask)</text><rect fill="#F0F4F8" height="33.9688" rx="12.5" ry="12.5" style="stroke:#2C3E50;stroke-width:0.5;" width="214.1738" x="223.5381" y="266.6172"/><text fill="#000000" font-family="sans-serif" font-size="12" lengthAdjust="spacing" textLength="194.1738" x="233.5381" y="287.7559">Define Signature (The Interface)</text><path d="M439.3809,320.5859 L439.3809,336.7188 L419.3809,340.7188 L439.3809,344.7188 L439.3809,360.8516 A0,0 0 0 0 439.3809,360.8516 L773.479,360.8516 A0,0 0 0 0 773.479,360.8516 L773.479,330.5859 L763.479,320.5859 L439.3809,320.5859 A0,0 0 0 0 439.3809,320.5859" fill="#FEFFDD" style="stroke:#181818;stroke-width:0.5;"/><path d="M763.479,320.5859 L763.479,330.5859 L773.479,330.5859 L763.479,320.5859" fill="#FEFFDD" style="stroke:#181818;stroke-width:0.5;"/><text fill="#000000" font-family="sans-serif" font-size="13" lengthAdjust="spacing" textLength="141.0068" x="445.3809" y="337.6528">dspy.ChainOfThought</text><text fill="#000000" font-family="sans-serif" font-size="13" lengthAdjust="spacing" textLength="313.0981" x="445.3809" y="352.7856">(Forces the model to 'reason' before answering)</text><rect fill="#F0F4F8" height="33.9688" rx="12.5" ry="12.5" style="stroke:#2C3E50;stroke-width:0.5;" width="177.5117" x="241.8691" y="323.7344"/><text fill="#000000" font-family="sans-serif" font-size="12" lengthAdjust="spacing" textLength="157.5117" x="251.8691" y="344.873">Attach Module (The Logic)</text><rect fill="#F0F4F8" height="33.9688" rx="12.5" ry="12.5" style="stroke:#2C3E50;stroke-width:0.5;" width="146.9199" x="257.165" y="380.8516"/><text fill="#000000" font-family="sans-serif" font-size="12" lengthAdjust="spacing" textLength="126.9199" x="267.165" y="401.9902">Run Single Test Case</text><path d="M21,424.8203 L21,480.2188 A0,0 0 0 0 21,480.2188 L255.5225,480.2188 A0,0 0 0 0 255.5225,480.2188 L255.5225,456.5195 L275.5225,452.5195 L255.5225,448.5195 L255.5225,434.8203 L245.5225,424.8203 L21,424.8203 A0,0 0 0 0 21,424.8203" fill="#FEFFDD" style="stroke:#181818;stroke-width:0.5;"/><path d="M245.5225,424.8203 L245.5225,434.8203 L255.5225,434.8203 L245.5225,424.8203" fill="#FEFFDD" style="stroke:#181818;stroke-width:0.5;"/><text fill="#000000" font-family="sans-serif" font-size="13" lengthAdjust="spacing" textLength="213.5225" x="27" y="441.8872">View the auto-generated prompt</text><text fill="#000000" font-family="sans-serif" font-size="13" lengthAdjust="spacing" textLength="210.3359" x="27" y="457.02">DSPy automatically created the:</text><text fill="#000000" font-family="sans-serif" font-size="13" lengthAdjust="spacing" textLength="5.9795" x="27" y="472.1528">"</text><a href="##" target="_top" title="##" xlink:actuate="onRequest" xlink:href="##" xlink:show="new" xlink:title="##" xlink:type="simple"><text fill="#0000FF" font-family="sans-serif" font-size="13" lengthAdjust="spacing" text-decoration="underline" textLength="90.2954" x="32.9795" y="472.1528">reasoning ##</text></a><text fill="#000000" font-family="sans-serif" font-size="13" lengthAdjust="spacing" textLength="38.1621" x="127.4072" y="472.1528">" field</text><rect fill="#F0F4F8" height="33.9688" rx="12.5" ry="12.5" style="stroke:#2C3E50;stroke-width:0.5;" width="110.2051" x="275.5225" y="435.5352"/><text fill="#000000" font-family="sans-serif" font-size="12" lengthAdjust="spacing" textLength="90.2051" x="285.5225" y="456.6738">Inspect History</text><rect fill="none" height="196.3516" style="stroke:#000000;stroke-width:1.5;" width="559.3428" x="178.71" y="502.2188"/><path d="M428.4258,502.2188 L428.4258,511.5156 L418.4258,521.5156 L178.71,521.5156" fill="none" style="stroke:#000000;stroke-width:1.5;"/><text fill="#000000" font-family="sans-serif" font-size="14" lengthAdjust="spacing" textLength="239.7158" x="181.71" y="516.2139">3. Productionization (Class-Based)</text><path d="M492.54,538.3672 L492.54,554.5 L472.54,558.5 L492.54,562.5 L492.54,578.6328 A0,0 0 0 0 492.54,578.6328 L728.0527,578.6328 A0,0 0 0 0 728.0527,578.6328 L728.0527,548.3672 L718.0527,538.3672 L492.54,538.3672 A0,0 0 0 0 492.54,538.3672" fill="#FEFFDD" style="stroke:#181818;stroke-width:0.5;"/><path d="M718.0527,538.3672 L718.0527,548.3672 L728.0527,548.3672 L718.0527,538.3672" fill="#FEFFDD" style="stroke:#181818;stroke-width:0.5;"/><text fill="#000000" font-family="sans-serif" font-size="13" lengthAdjust="spacing" textLength="170.314" x="498.54" y="555.4341">Inherits from dspy.Module</text><text fill="#000000" font-family="sans-serif" font-size="13" lengthAdjust="spacing" textLength="214.5127" x="498.54" y="570.5669">Acts like a standard Python class</text><rect fill="#F0F4F8" height="33.9688" rx="12.5" ry="12.5" style="stroke:#2C3E50;stroke-width:0.5;" width="283.8301" x="188.71" y="541.5156"/><text fill="#000000" font-family="sans-serif" font-size="12" lengthAdjust="spacing" textLength="263.8301" x="198.71" y="562.6543">Define Custom Module (SentimentAnalyzer)</text><rect fill="#F0F4F8" height="33.9688" rx="12.5" ry="12.5" style="stroke:#2C3E50;stroke-width:0.5;" width="184.584" x="238.333" y="598.6328"/><text fill="#000000" font-family="sans-serif" font-size="12" lengthAdjust="spacing" textLength="140.9238" x="248.333" y="619.7715">Initialize Sub-modules (</text><text fill="#000000" font-family="sans-serif" font-size="12" lengthAdjust="spacing" text-decoration="underline" textLength="18.9785" x="389.2568" y="619.7715">init</text><text fill="#000000" font-family="sans-serif" font-size="12" lengthAdjust="spacing" textLength="4.6816" x="408.2354" y="619.7715">)</text><rect fill="#F0F4F8" height="33.9688" rx="12.5" ry="12.5" style="stroke:#2C3E50;stroke-width:0.5;" width="185.1641" x="238.043" y="652.6016"/><text fill="#000000" font-family="sans-serif" font-size="12" lengthAdjust="spacing" textLength="165.1641" x="248.043" y="673.7402">Define Logic Flow (forward)</text><rect fill="none" height="486.2344" style="stroke:#000000;stroke-width:1.5;" width="417.5601" x="187.7656" y="708.5703"/><path d="M344.2529,708.5703 L344.2529,717.8672 L334.2529,727.8672 L187.7656,727.8672" fill="none" style="stroke:#000000;stroke-width:1.5;"/><text fill="#000000" font-family="sans-serif" font-size="14" lengthAdjust="spacing" textLength="146.4873" x="190.7656" y="722.5654">4. Execution Pipeline</text><rect fill="#F0F4F8" height="33.9688" rx="12.5" ry="12.5" style="stroke:#2C3E50;stroke-width:0.5;" width="178.0273" x="241.6113" y="744.8672"/><text fill="#000000" font-family="sans-serif" font-size="12" lengthAdjust="spacing" textLength="158.0273" x="251.6113" y="766.0059">Input: List of Raw Reviews</text><rect fill="#F0F4F8" height="33.9688" rx="12.5" ry="12.5" style="stroke:#2C3E50;stroke-width:0.5;" width="217.7188" x="221.7656" y="842.8359"/><text fill="#000000" font-family="sans-serif" font-size="12" lengthAdjust="spacing" textLength="197.7188" x="231.7656" y="863.9746">Enter SentimentAnalyzer Module</text><path d="M429.4639,886.8047 L429.4639,918.0703 L409.4639,922.0703 L429.4639,926.0703 L429.4639,957.3359 A0,0 0 0 0 429.4639,957.3359 L574.3257,957.3359 A0,0 0 0 0 574.3257,957.3359 L574.3257,896.8047 L564.3257,886.8047 L429.4639,886.8047 A0,0 0 0 0 429.4639,886.8047" fill="#FEFFDD" style="stroke:#181818;stroke-width:0.5;"/><path d="M564.3257,886.8047 L564.3257,896.8047 L574.3257,896.8047 L564.3257,886.8047" fill="#FEFFDD" style="stroke:#181818;stroke-width:0.5;"/><text fill="#000000" font-family="sans-serif" font-size="13" lengthAdjust="spacing" textLength="68.9482" x="435.4639" y="903.8716">Combines:</text><text fill="#000000" font-family="sans-serif" font-size="13" lengthAdjust="spacing" textLength="92.8853" x="435.4639" y="919.0044">1. Instructions</text><text fill="#000000" font-family="sans-serif" font-size="13" lengthAdjust="spacing" textLength="123.8618" x="435.4639" y="934.1372">2. Field constraints</text><text fill="#000000" font-family="sans-serif" font-size="13" lengthAdjust="spacing" textLength="83.6113" x="435.4639" y="949.27">3. Input data</text><rect fill="#F0F4F8" height="33.9688" rx="12.5" ry="12.5" style="stroke:#2C3E50;stroke-width:0.5;" width="157.6777" x="251.7861" y="905.0859"/><text fill="#000000" font-family="sans-serif" font-size="12" lengthAdjust="spacing" textLength="137.6777" x="261.7861" y="926.2246">DSPy Compiles Prompt</text><rect fill="#F0F4F8" height="33.9688" rx="12.5" ry="12.5" style="stroke:#2C3E50;stroke-width:0.5;" width="139.332" x="260.959" y="992.3359"/><text fill="#000000" font-family="sans-serif" font-size="12" lengthAdjust="spacing" textLength="119.332" x="270.959" y="1013.4746">Gemma 3 Inference</text><path d="M399.9531,1036.3047 L399.9531,1067.5703 L379.9531,1071.5703 L399.9531,1075.5703 L399.9531,1106.8359 A0,0 0 0 0 399.9531,1106.8359 L550.0454,1106.8359 A0,0 0 0 0 550.0454,1106.8359 L550.0454,1046.3047 L540.0454,1036.3047 L399.9531,1036.3047 A0,0 0 0 0 399.9531,1036.3047" fill="#FEFFDD" style="stroke:#181818;stroke-width:0.5;"/><path d="M540.0454,1036.3047 L540.0454,1046.3047 L550.0454,1046.3047 L540.0454,1036.3047" fill="#FEFFDD" style="stroke:#181818;stroke-width:0.5;"/><text fill="#000000" font-family="sans-serif" font-size="13" lengthAdjust="spacing" textLength="57.7129" x="405.9531" y="1053.3716">Extracts:</text><text fill="#000000" font-family="sans-serif" font-size="13" lengthAdjust="spacing" textLength="129.0923" x="405.9531" y="1068.5044">- Sentiment (String)</text><text fill="#000000" font-family="sans-serif" font-size="13" lengthAdjust="spacing" textLength="128.2988" x="405.9531" y="1083.6372">- Confidence (Float)</text><text fill="#000000" font-family="sans-serif" font-size="13" lengthAdjust="spacing" textLength="113.6865" x="405.9531" y="1098.77">- Key Points (List)</text><rect fill="#F0F4F8" height="33.9688" rx="12.5" ry="12.5" style="stroke:#2C3E50;stroke-width:0.5;" width="98.6563" x="281.2969" y="1054.5859"/><text fill="#000000" font-family="sans-serif" font-size="12" lengthAdjust="spacing" textLength="78.6563" x="291.2969" y="1075.7246">Parse Output</text><polygon fill="#F0F4F8" points="281.5198,798.8359,379.7302,798.8359,391.7302,810.8359,379.7302,822.8359,281.5198,822.8359,269.5198,810.8359,281.5198,798.8359" style="stroke:#2C3E50;stroke-width:0.5;"/><text fill="#000000" font-family="sans-serif" font-size="11" lengthAdjust="spacing" textLength="98.2104" x="281.5198" y="814.644">For each review...</text><rect fill="#F0F4F8" height="33.9688" rx="12.5" ry="12.5" style="stroke:#2C3E50;stroke-width:0.5;" width="213.207" x="224.0215" y="1148.8359"/><text fill="#000000" font-family="sans-serif" font-size="12" lengthAdjust="spacing" textLength="193.207" x="234.0215" y="1169.9746">Output: Structured Data Stream</text><line style="stroke:#333333;stroke-width:1;" x1="330.625" x2="330.625" y1="148.2031" y2="168.2031"/><polygon fill="#333333" points="326.625,158.2031,330.625,168.2031,334.625,158.2031,330.625,162.2031" style="stroke:#333333;stroke-width:1;"/><line style="stroke:#333333;stroke-width:1;" x1="330.625" x2="330.625" y1="300.5859" y2="323.7344"/><polygon fill="#333333" points="326.625,313.7344,330.625,323.7344,334.625,313.7344,330.625,317.7344" style="stroke:#333333;stroke-width:1;"/><line style="stroke:#333333;stroke-width:1;" x1="330.625" x2="330.625" y1="357.7031" y2="380.8516"/><polygon fill="#333333" points="326.625,370.8516,330.625,380.8516,334.625,370.8516,330.625,374.8516" style="stroke:#333333;stroke-width:1;"/><line style="stroke:#333333;stroke-width:1;" x1="330.625" x2="330.625" y1="414.8203" y2="435.5352"/><polygon fill="#333333" points="326.625,425.5352,330.625,435.5352,334.625,425.5352,330.625,429.5352" style="stroke:#333333;stroke-width:1;"/><line style="stroke:#333333;stroke-width:1;" x1="330.625" x2="330.625" y1="202.1719" y2="266.6172"/><polygon fill="#333333" points="326.625,256.6172,330.625,266.6172,334.625,256.6172,330.625,260.6172" style="stroke:#333333;stroke-width:1;"/><line style="stroke:#333333;stroke-width:1;" x1="330.625" x2="330.625" y1="575.4844" y2="598.6328"/><polygon fill="#333333" points="326.625,588.6328,330.625,598.6328,334.625,588.6328,330.625,592.6328" style="stroke:#333333;stroke-width:1;"/><line style="stroke:#333333;stroke-width:1;" x1="330.625" x2="330.625" y1="632.6016" y2="652.6016"/><polygon fill="#333333" points="326.625,642.6016,330.625,652.6016,334.625,642.6016,330.625,646.6016" style="stroke:#333333;stroke-width:1;"/><line style="stroke:#333333;stroke-width:1;" x1="330.625" x2="330.625" y1="469.5039" y2="541.5156"/><polygon fill="#333333" points="326.625,531.5156,330.625,541.5156,334.625,531.5156,330.625,535.5156" style="stroke:#333333;stroke-width:1;"/><line style="stroke:#333333;stroke-width:1;" x1="330.625" x2="330.625" y1="876.8047" y2="905.0859"/><polygon fill="#333333" points="326.625,895.0859,330.625,905.0859,334.625,895.0859,330.625,899.0859" style="stroke:#333333;stroke-width:1;"/><line style="stroke:#333333;stroke-width:1;" x1="330.625" x2="330.625" y1="939.0547" y2="992.3359"/><polygon fill="#333333" points="326.625,982.3359,330.625,992.3359,334.625,982.3359,330.625,986.3359" style="stroke:#333333;stroke-width:1;"/><line style="stroke:#333333;stroke-width:1;" x1="330.625" x2="330.625" y1="1026.3047" y2="1054.5859"/><polygon fill="#333333" points="326.625,1044.5859,330.625,1054.5859,334.625,1044.5859,330.625,1048.5859" style="stroke:#333333;stroke-width:1;"/><line style="stroke:#333333;stroke-width:1;" x1="330.625" x2="330.625" y1="822.8359" y2="842.8359"/><polygon fill="#333333" points="326.625,832.8359,330.625,842.8359,334.625,832.8359,330.625,836.8359" style="stroke:#333333;stroke-width:1;"/><line style="stroke:#333333;stroke-width:1;" x1="330.625" x2="330.625" y1="1088.5547" y2="1116.8359"/><line style="stroke:#333333;stroke-width:1;" x1="330.625" x2="586.3257" y1="1116.8359" y2="1116.8359"/><polygon fill="#333333" points="582.3257,972.8359,586.3257,962.8359,590.3257,972.8359,586.3257,968.8359" style="stroke:#333333;stroke-width:1;"/><line style="stroke:#333333;stroke-width:1;" x1="586.3257" x2="586.3257" y1="810.8359" y2="1116.8359"/><line style="stroke:#333333;stroke-width:1;" x1="586.3257" x2="391.7302" y1="810.8359" y2="810.8359"/><polygon fill="#333333" points="401.7302,806.8359,391.7302,810.8359,401.7302,814.8359,397.7302,810.8359" style="stroke:#333333;stroke-width:1;"/><line style="stroke:#333333;stroke-width:1;" x1="269.5198" x2="209.7656" y1="810.8359" y2="810.8359"/><polygon fill="#333333" points="205.7656,958.8359,209.7656,968.8359,213.7656,958.8359,209.7656,962.8359" style="stroke:#333333;stroke-width:1;"/><line style="stroke:#333333;stroke-width:1;" x1="209.7656" x2="209.7656" y1="810.8359" y2="1128.8359"/><line style="stroke:#333333;stroke-width:1;" x1="209.7656" x2="330.625" y1="1128.8359" y2="1128.8359"/><line style="stroke:#333333;stroke-width:1;" x1="330.625" x2="330.625" y1="1128.8359" y2="1148.8359"/><polygon fill="#333333" points="326.625,1138.8359,330.625,1148.8359,334.625,1138.8359,330.625,1142.8359" style="stroke:#333333;stroke-width:1;"/><line style="stroke:#333333;stroke-width:1;" x1="330.625" x2="330.625" y1="778.8359" y2="798.8359"/><polygon fill="#333333" points="326.625,788.8359,330.625,798.8359,334.625,788.8359,330.625,792.8359" style="stroke:#333333;stroke-width:1;"/><line style="stroke:#333333;stroke-width:1;" x1="330.625" x2="330.625" y1="686.5703" y2="744.8672"/><polygon fill="#333333" points="326.625,734.8672,330.625,744.8672,334.625,734.8672,330.625,738.8672" style="stroke:#333333;stroke-width:1;"/><?plantuml-src TLJlRzCm4FtUl-BKVI2LQ81rIAW8f96rK554jKxZ0qAJcrmIguuTsPTb1V6_StRIqltQbzMvyzsxzzxPRQMkXHKLR4IwBQnfT9OOPIoqfIGSk4Ey53fhhIH23RbGxZZcIf6PLkhYKUJSMjDs1KycuUyuc9AybRJxzA3roVpr_6p-xgbCOpEqVTPfCfczVJqOa2I5SB5UxU27iTjScNOASsigcDtLQ6M5ce0ChAp96YvaD4Hh_jO5phLGEoVTQ33WNbpBnuTlObXe_YsK_2tyfo7y6G1CbqPaCDEtqXeThbyBAyL6eOCeHdqxUk-p4gDpMJGMORdy1b61bTJo5V-hn7WoVdEw6KiAcTeGWfL5INm0o5ozYzFzvKXL7rGr2f4raWCg4OORAoIZoPa1V_PpS9zQrgYaHav6dOMwWx_t9ZgDuOhpZoY9bYYizggjIk5mr8zuWJaNWhKij20_G-JlBJIXpKMAJ-4U4juHZ3-2szFw4i8O6UeKXo4d2dLzjnzVpg-WHMY5p-DIK9hM2oJSTdGyW4TpJYJI4hwnTAg7iZI5J9-bBocPd-_vLMcQ_VTeRcoA7N-LoL3vPYyi2cVq2zWWSuaWj6kP6LqyWd3PQ6P35zp_2Xr1mcJvxZwsqAx6bE2BT6JixW1AOTxrlfROXiQY8JCkKACLX1dKxC-wImdEzU6AdPOAfNQGCZYVnHUd7SC_VyB92NIOFOby-FMBRI1HPS-BFecFNDyx6Q942UV6dtYCx87eISDZL0Us3riIbkGtsgTON-YIUMDxvdxbWWRT_H3bpNMWv9O904VyXWYRmMf79GD9FOvZy7jE-yLZ4pQRSHMAyNxTtB1_wEQcsx4USJ03p7dd8M8TMoxFyViidCLiUqoRS5hrcz8Flj1rGrDOidvWShWKBLpYBOlcUedv7VHKi8K0lHDjYCPnt2tcTEON0nunrNFuFYHrcK7dX6MNVfnLC40NVy0e-AmDOtJJ_XoU8qUs4zBrNtcbvrv_lsiSPD_JFZJn5tWoo0I9yEs8v3sWp_v1WWbdvcZzfXwZNGdh4Butn5MUGJcxuwQixnxb-3yDx1tQBrCNIWxl0PEfZA3_eQ-uWvNnwFbDOY563m7ppo13Rv0Er1JMWH1-eZAuu37z6KN5wly3?></g></svg>