<?plantuml 1.2026.2beta3?><svg xmlns="http://www.w3.org/2000/svg" xmlns:xlink="http://www.w3.org/1999/xlink" contentStyleType="text/css" data-diagram-type="ACTIVITY" height="1111px" preserveAspectRatio="none" style="width:591px;height:1111px;background:#FFFFFF;" version="1.1" viewBox="0 0 591 1111" width="591px" zoomAndPan="magnify"><title>DSPy Optimization Pipeline: ReAct Agent + MIPROv2</title><defs/><g><rect fill="#FFFFCC" height="26.6406" rx="2.5" ry="2.5" style="stroke:#FFDD88;stroke-width:3;" width="580.2476" x="5" y="5"/><text fill="#000000" font-family="monospace" font-size="10" lengthAdjust="spacing" textLength="355.21" x="10" y="20">Please&#160;use&#160;'!option&#160;handwritten&#160;true'&#160;to&#160;enable&#160;handwritten</text><g class="title" data-source-line="10"><text fill="#000000" font-family="sans-serif" font-size="14" font-weight="bold" lengthAdjust="spacing" textLength="416.835" x="78.2063" y="69.6357">DSPy Optimization Pipeline: ReAct Agent + MIPROv2</text></g><rect fill="none" height="189.5" style="stroke:#000000;stroke-width:1.5;" width="523.2593" x="41.9883" y="84.9375"/><path d="M204.6963,84.9375 L204.6963,94.2344 L194.6963,104.2344 L41.9883,104.2344" fill="none" style="stroke:#000000;stroke-width:1.5;"/><text fill="#000000" font-family="sans-serif" font-size="14" lengthAdjust="spacing" textLength="152.708" x="44.9883" y="98.9326">1. Environment Setup</text><rect fill="#F0F4F8" height="33.9688" rx="12.5" ry="12.5" style="stroke:#2C3E50;stroke-width:0.5;" width="173.7676" x="67.4922" y="114.2344"/><text fill="#000000" font-family="sans-serif" font-size="12" lengthAdjust="spacing" textLength="153.7676" x="77.4922" y="135.373">Load Env Variables (.env)</text><path d="M272.9463,165.0547 L272.9463,181.1875 L252.9463,185.1875 L272.9463,189.1875 L272.9463,205.3203 A0,0 0 0 0 272.9463,205.3203 L555.2476,205.3203 A0,0 0 0 0 555.2476,205.3203 L555.2476,175.0547 L545.2476,165.0547 L272.9463,165.0547 A0,0 0 0 0 272.9463,165.0547" fill="#FFF9C4" style="stroke:#FBC02D;stroke-width:0.5;"/><path d="M545.2476,165.0547 L545.2476,175.0547 L555.2476,175.0547 L545.2476,165.0547" fill="#FFF9C4" style="stroke:#FBC02D;stroke-width:0.5;"/><text fill="#000000" font-family="sans-serif" font-size="13" lengthAdjust="spacing" textLength="150.395" x="278.9463" y="182.1216">"DSPy-Optimizer-Groq"</text><text fill="#000000" font-family="sans-serif" font-size="13" lengthAdjust="spacing" textLength="261.3013" x="278.9463" y="197.2544">Enable Auto-Tracing (Logs optimization)</text><rect fill="#F0F4F8" height="33.9688" rx="12.5" ry="12.5" style="stroke:#2C3E50;stroke-width:0.5;" width="197.1406" x="55.8057" y="168.2031"/><text fill="#000000" font-family="sans-serif" font-size="12" lengthAdjust="spacing" textLength="177.1406" x="65.8057" y="189.3418">Configure MLflow Experiment</text><path d="M276.7637,222.1719 L276.7637,238.3047 L256.7637,242.3047 L276.7637,246.3047 L276.7637,262.4375 A0,0 0 0 0 276.7637,262.4375 L437.958,262.4375 A0,0 0 0 0 437.958,262.4375 L437.958,232.1719 L427.958,222.1719 L276.7637,222.1719 A0,0 0 0 0 276.7637,222.1719" fill="#FFF9C4" style="stroke:#FBC02D;stroke-width:0.5;"/><path d="M427.958,222.1719 L427.958,232.1719 L437.958,232.1719 L427.958,222.1719" fill="#FFF9C4" style="stroke:#FBC02D;stroke-width:0.5;"/><text fill="#000000" font-family="sans-serif" font-size="13" lengthAdjust="spacing" textLength="138.5693" x="282.7637" y="239.2388">High speed inference</text><text fill="#000000" font-family="sans-serif" font-size="13" lengthAdjust="spacing" textLength="140.1943" x="282.7637" y="254.3716">(70B Versatile Model)</text><rect fill="#F0F4F8" height="33.9688" rx="12.5" ry="12.5" style="stroke:#2C3E50;stroke-width:0.5;" width="204.7754" x="51.9883" y="225.3203"/><text fill="#000000" font-family="sans-serif" font-size="12" lengthAdjust="spacing" textLength="184.7754" x="61.9883" y="246.459">Configure LM (Groq Llama 3.3)</text><rect fill="none" height="253.6172" style="stroke:#000000;stroke-width:1.5;" width="487.7773" x="43.5732" y="284.4375"/><path d="M238.3076,284.4375 L238.3076,293.7344 L228.3076,303.7344 L43.5732,303.7344" fill="none" style="stroke:#000000;stroke-width:1.5;"/><text fill="#000000" font-family="sans-serif" font-size="14" lengthAdjust="spacing" textLength="184.7344" x="46.5732" y="298.4326">2. Agent &amp; Data Definition</text><rect fill="#F0F4F8" height="33.9688" rx="12.5" ry="12.5" style="stroke:#2C3E50;stroke-width:0.5;" width="201.6055" x="53.5732" y="320.7344"/><text fill="#000000" font-family="sans-serif" font-size="12" lengthAdjust="spacing" textLength="181.6055" x="63.5732" y="341.873">Define Tools (Mock Wikipedia)</text><path d="M248.6768,371.5547 L248.6768,387.6875 L228.6768,391.6875 L248.6768,395.6875 L248.6768,411.8203 A0,0 0 0 0 248.6768,411.8203 L480.1143,411.8203 A0,0 0 0 0 480.1143,411.8203 L480.1143,381.5547 L470.1143,371.5547 L248.6768,371.5547 A0,0 0 0 0 248.6768,371.5547" fill="#FFF9C4" style="stroke:#FBC02D;stroke-width:0.5;"/><path d="M470.1143,371.5547 L470.1143,381.5547 L480.1143,381.5547 L470.1143,371.5547" fill="#FFF9C4" style="stroke:#FBC02D;stroke-width:0.5;"/><text fill="#000000" font-family="sans-serif" font-size="13" lengthAdjust="spacing" textLength="210.4375" x="254.6768" y="388.6216">Signature: "question -&gt; answer"</text><text fill="#000000" font-family="sans-serif" font-size="13" lengthAdjust="spacing" textLength="164.3218" x="254.6768" y="403.7544">Tools: [search_wikipedia]</text><rect fill="#F0F4F8" height="33.9688" rx="12.5" ry="12.5" style="stroke:#2C3E50;stroke-width:0.5;" width="148.6016" x="80.0752" y="374.7031"/><text fill="#000000" font-family="sans-serif" font-size="12" lengthAdjust="spacing" textLength="128.6016" x="90.0752" y="395.8418">Initialize ReAct Agent</text><path d="M232.9736,428.6719 L232.9736,444.8047 L212.9736,448.8047 L232.9736,452.8047 L232.9736,468.9375 A0,0 0 0 0 232.9736,468.9375 L396.5801,468.9375 A0,0 0 0 0 396.5801,468.9375 L396.5801,438.6719 L386.5801,428.6719 L232.9736,428.6719 A0,0 0 0 0 232.9736,428.6719" fill="#FFF9C4" style="stroke:#FBC02D;stroke-width:0.5;"/><path d="M386.5801,428.6719 L386.5801,438.6719 L396.5801,438.6719 L386.5801,428.6719" fill="#FFF9C4" style="stroke:#FBC02D;stroke-width:0.5;"/><text fill="#000000" font-family="sans-serif" font-size="13" lengthAdjust="spacing" textLength="142.6064" x="238.9736" y="445.7388">Trainset (7 examples)</text><text fill="#000000" font-family="sans-serif" font-size="13" lengthAdjust="spacing" textLength="129.9746" x="238.9736" y="460.8716">Valset (4 examples)</text><rect fill="#F0F4F8" height="33.9688" rx="12.5" ry="12.5" style="stroke:#2C3E50;stroke-width:0.5;" width="117.1953" x="95.7783" y="431.8203"/><text fill="#000000" font-family="sans-serif" font-size="12" lengthAdjust="spacing" textLength="97.1953" x="105.7783" y="452.959">Create Datasets</text><path d="M249.415,485.7891 L249.415,501.9219 L229.415,505.9219 L249.415,509.9219 L249.415,526.0547 A0,0 0 0 0 249.415,526.0547 L521.3506,526.0547 A0,0 0 0 0 521.3506,526.0547 L521.3506,495.7891 L511.3506,485.7891 L249.415,485.7891 A0,0 0 0 0 249.415,485.7891" fill="#FFF9C4" style="stroke:#FBC02D;stroke-width:0.5;"/><path d="M511.3506,485.7891 L511.3506,495.7891 L521.3506,495.7891 L511.3506,485.7891" fill="#FFF9C4" style="stroke:#FBC02D;stroke-width:0.5;"/><text fill="#000000" font-family="sans-serif" font-size="13" lengthAdjust="spacing" textLength="108.1958" x="255.415" y="502.856">"custom_metric"</text><text fill="#000000" font-family="sans-serif" font-size="13" lengthAdjust="spacing" textLength="250.9355" x="255.415" y="517.9888">Checks if answer matches (F1 &gt;= 0.5)</text><rect fill="#F0F4F8" height="33.9688" rx="12.5" ry="12.5" style="stroke:#2C3E50;stroke-width:0.5;" width="150.0781" x="79.3369" y="488.9375"/><text fill="#000000" font-family="sans-serif" font-size="12" lengthAdjust="spacing" textLength="130.0781" x="89.3369" y="510.0762">Define Custom Metric</text><rect fill="none" height="406" style="stroke:#000000;stroke-width:1.5;" width="553.2207" x="11" y="548.0547"/><path d="M275.085,548.0547 L275.085,557.3516 L265.085,567.3516 L11,567.3516" fill="none" style="stroke:#000000;stroke-width:1.5;"/><text fill="#000000" font-family="sans-serif" font-size="14" lengthAdjust="spacing" textLength="254.085" x="14" y="562.0498">3. The Optimization Loop (MIPROv2)</text><rect fill="#F0F4F8" height="33.9688" rx="12.5" ry="12.5" style="stroke:#2C3E50;stroke-width:0.5;" width="132.7754" x="87.9883" y="584.3516"/><text fill="#000000" font-family="sans-serif" font-size="12" lengthAdjust="spacing" textLength="112.7754" x="97.9883" y="605.4902">Initialize Optimizer</text><rect fill="none" height="256.6172" style="stroke:#000000;stroke-width:1.5;" width="533.2207" x="21" y="628.3203"/><path d="M332.2803,628.3203 L332.2803,637.6172 L322.2803,647.6172 L21,647.6172" fill="none" style="stroke:#000000;stroke-width:1.5;"/><text fill="#000000" font-family="sans-serif" font-size="14" lengthAdjust="spacing" textLength="301.2803" x="24" y="642.3154">Optimization Process (Repeats for N Trials)</text><path d="M297.752,664.4688 L297.752,680.6016 L277.752,684.6016 L297.752,688.6016 L297.752,704.7344 A0,0 0 0 0 297.752,704.7344 L544.2207,704.7344 A0,0 0 0 0 544.2207,704.7344 L544.2207,674.4688 L534.2207,664.4688 L297.752,664.4688 A0,0 0 0 0 297.752,664.4688" fill="#FFF9C4" style="stroke:#FBC02D;stroke-width:0.5;"/><path d="M534.2207,664.4688 L534.2207,674.4688 L544.2207,674.4688 L534.2207,664.4688" fill="#FFF9C4" style="stroke:#FBC02D;stroke-width:0.5;"/><text fill="#000000" font-family="sans-serif" font-size="13" lengthAdjust="spacing" textLength="225.4688" x="303.752" y="681.5356">Finds best examples from Trainset</text><text fill="#000000" font-family="sans-serif" font-size="13" lengthAdjust="spacing" textLength="157.4282" x="303.752" y="696.6685">to include in the prompt</text><rect fill="#F0F4F8" height="33.9688" rx="12.5" ry="12.5" style="stroke:#2C3E50;stroke-width:0.5;" width="246.752" x="31" y="667.6172"/><text fill="#000000" font-family="sans-serif" font-size="12" lengthAdjust="spacing" textLength="226.752" x="41" y="688.7559">Step 1: Bootstrap Few-Shot Examples</text><path d="M268.8887,721.5859 L268.8887,737.7188 L248.8887,741.7188 L268.8887,745.7188 L268.8887,761.8516 A0,0 0 0 0 268.8887,761.8516 L520.334,761.8516 A0,0 0 0 0 520.334,761.8516 L520.334,731.5859 L510.334,721.5859 L268.8887,721.5859 A0,0 0 0 0 268.8887,721.5859" fill="#FFF9C4" style="stroke:#FBC02D;stroke-width:0.5;"/><path d="M510.334,721.5859 L510.334,731.5859 L520.334,731.5859 L510.334,721.5859" fill="#FFF9C4" style="stroke:#FBC02D;stroke-width:0.5;"/><text fill="#000000" font-family="sans-serif" font-size="13" lengthAdjust="spacing" textLength="230.4453" x="274.8887" y="738.6528">Generates new prompt instructions</text><text fill="#000000" font-family="sans-serif" font-size="13" lengthAdjust="spacing" textLength="214.7983" x="274.8887" y="753.7856">(e.g. "Be creative", "Be concise")</text><rect fill="#F0F4F8" height="33.9688" rx="12.5" ry="12.5" style="stroke:#2C3E50;stroke-width:0.5;" width="189.0254" x="59.8633" y="724.7344"/><text fill="#000000" font-family="sans-serif" font-size="12" lengthAdjust="spacing" textLength="169.0254" x="69.8633" y="745.873">Step 2: Propose Instructions</text><path d="M266.4805,778.7031 L266.4805,794.8359 L246.4805,798.8359 L266.4805,802.8359 L266.4805,818.9688 A0,0 0 0 0 266.4805,818.9688 L475.9678,818.9688 A0,0 0 0 0 475.9678,818.9688 L475.9678,788.7031 L465.9678,778.7031 L266.4805,778.7031 A0,0 0 0 0 266.4805,778.7031" fill="#FFF9C4" style="stroke:#FBC02D;stroke-width:0.5;"/><path d="M465.9678,778.7031 L465.9678,788.7031 L475.9678,788.7031 L465.9678,778.7031" fill="#FFF9C4" style="stroke:#FBC02D;stroke-width:0.5;"/><text fill="#000000" font-family="sans-serif" font-size="13" lengthAdjust="spacing" textLength="178.0137" x="272.4805" y="795.77">Runs agent on Valset using</text><text fill="#000000" font-family="sans-serif" font-size="13" lengthAdjust="spacing" textLength="188.4873" x="272.4805" y="810.9028">new instructions &amp; examples</text><rect fill="#F0F4F8" height="33.9688" rx="12.5" ry="12.5" style="stroke:#2C3E50;stroke-width:0.5;" width="184.209" x="62.2715" y="781.8516"/><text fill="#000000" font-family="sans-serif" font-size="12" lengthAdjust="spacing" textLength="164.209" x="72.2715" y="802.9902">Step 3: Evaluate Candidate</text><rect fill="#F0F4F8" height="33.9688" rx="12.5" ry="12.5" style="stroke:#2C3E50;stroke-width:0.5;" width="147.7754" x="80.4883" y="838.9688"/><text fill="#000000" font-family="sans-serif" font-size="12" lengthAdjust="spacing" textLength="127.7754" x="90.4883" y="860.1074">Step 4: Update Score</text><path d="M245.5391,901.7891 L245.5391,917.9219 L225.5391,921.9219 L245.5391,925.9219 L245.5391,942.0547 A0,0 0 0 0 245.5391,942.0547 L432.7651,942.0547 A0,0 0 0 0 432.7651,942.0547 L432.7651,911.7891 L422.7651,901.7891 L245.5391,901.7891 A0,0 0 0 0 245.5391,901.7891" fill="#FFF9C4" style="stroke:#FBC02D;stroke-width:0.5;"/><path d="M422.7651,901.7891 L422.7651,911.7891 L432.7651,911.7891 L422.7651,901.7891" fill="#FFF9C4" style="stroke:#FBC02D;stroke-width:0.5;"/><text fill="#000000" font-family="sans-serif" font-size="13" lengthAdjust="spacing" textLength="166.2261" x="251.5391" y="918.856">The combination with the</text><text fill="#000000" font-family="sans-serif" font-size="13" lengthAdjust="spacing" textLength="155.6953" x="251.5391" y="933.9888">highest validation score</text><rect fill="#F0F4F8" height="33.9688" rx="12.5" ry="12.5" style="stroke:#2C3E50;stroke-width:0.5;" width="142.3262" x="83.2129" y="904.9375"/><text fill="#000000" font-family="sans-serif" font-size="12" lengthAdjust="spacing" textLength="122.3262" x="93.2129" y="926.0762">Select Best Program</text><rect fill="none" height="136.2344" style="stroke:#000000;stroke-width:1.5;" width="193.6504" x="57.5508" y="964.0547"/><path d="M133.9893,964.0547 L133.9893,973.3516 L123.9893,983.3516 L57.5508,983.3516" fill="none" style="stroke:#000000;stroke-width:1.5;"/><text fill="#000000" font-family="sans-serif" font-size="14" lengthAdjust="spacing" textLength="66.4385" x="60.5508" y="978.0498">4. Output</text><rect fill="#F0F4F8" height="33.9688" rx="12.5" ry="12.5" style="stroke:#2C3E50;stroke-width:0.5;" width="173.6504" x="67.5508" y="1000.3516"/><text fill="#000000" font-family="sans-serif" font-size="12" lengthAdjust="spacing" textLength="153.6504" x="77.5508" y="1021.4902">Compile Optimized Agent</text><rect fill="#F0F4F8" height="33.9688" rx="12.5" ry="12.5" style="stroke:#2C3E50;stroke-width:0.5;" width="146.2402" x="81.2559" y="1054.3203"/><text fill="#000000" font-family="sans-serif" font-size="12" lengthAdjust="spacing" textLength="126.2402" x="91.2559" y="1075.459">Ready for Production</text><line style="stroke:#333333;stroke-width:1;" x1="154.376" x2="154.376" y1="148.2031" y2="168.2031"/><polygon fill="#333333" points="150.376,158.2031,154.376,168.2031,158.376,158.2031,154.376,162.2031" style="stroke:#333333;stroke-width:1;"/><line style="stroke:#333333;stroke-width:1;" x1="154.376" x2="154.376" y1="202.1719" y2="225.3203"/><polygon fill="#333333" points="150.376,215.3203,154.376,225.3203,158.376,215.3203,154.376,219.3203" style="stroke:#333333;stroke-width:1;"/><line style="stroke:#333333;stroke-width:1;" x1="154.376" x2="154.376" y1="354.7031" y2="374.7031"/><polygon fill="#333333" points="150.376,364.7031,154.376,374.7031,158.376,364.7031,154.376,368.7031" style="stroke:#333333;stroke-width:1;"/><line style="stroke:#333333;stroke-width:1;" x1="154.376" x2="154.376" y1="408.6719" y2="431.8203"/><polygon fill="#333333" points="150.376,421.8203,154.376,431.8203,158.376,421.8203,154.376,425.8203" style="stroke:#333333;stroke-width:1;"/><line style="stroke:#333333;stroke-width:1;" x1="154.376" x2="154.376" y1="465.7891" y2="488.9375"/><polygon fill="#333333" points="150.376,478.9375,154.376,488.9375,158.376,478.9375,154.376,482.9375" style="stroke:#333333;stroke-width:1;"/><line style="stroke:#333333;stroke-width:1;" x1="154.376" x2="154.376" y1="259.2891" y2="320.7344"/><polygon fill="#333333" points="150.376,310.7344,154.376,320.7344,158.376,310.7344,154.376,314.7344" style="stroke:#333333;stroke-width:1;"/><line style="stroke:#333333;stroke-width:1;" x1="154.376" x2="154.376" y1="701.5859" y2="724.7344"/><polygon fill="#333333" points="150.376,714.7344,154.376,724.7344,158.376,714.7344,154.376,718.7344" style="stroke:#333333;stroke-width:1;"/><line style="stroke:#333333;stroke-width:1;" x1="154.376" x2="154.376" y1="758.7031" y2="781.8516"/><polygon fill="#333333" points="150.376,771.8516,154.376,781.8516,158.376,771.8516,154.376,775.8516" style="stroke:#333333;stroke-width:1;"/><line style="stroke:#333333;stroke-width:1;" x1="154.376" x2="154.376" y1="815.8203" y2="838.9688"/><polygon fill="#333333" points="150.376,828.9688,154.376,838.9688,158.376,828.9688,154.376,832.9688" style="stroke:#333333;stroke-width:1;"/><line style="stroke:#333333;stroke-width:1;" x1="154.376" x2="154.376" y1="618.3203" y2="667.6172"/><polygon fill="#333333" points="150.376,657.6172,154.376,667.6172,158.376,657.6172,154.376,661.6172" style="stroke:#333333;stroke-width:1;"/><line style="stroke:#333333;stroke-width:1;" x1="154.376" x2="154.376" y1="872.9375" y2="904.9375"/><polygon fill="#333333" points="150.376,894.9375,154.376,904.9375,158.376,894.9375,154.376,898.9375" style="stroke:#333333;stroke-width:1;"/><line style="stroke:#333333;stroke-width:1;" x1="154.376" x2="154.376" y1="522.9063" y2="584.3516"/><polygon fill="#333333" points="150.376,574.3516,154.376,584.3516,158.376,574.3516,154.376,578.3516" style="stroke:#333333;stroke-width:1;"/><line style="stroke:#333333;stroke-width:1;" x1="154.376" x2="154.376" y1="1034.3203" y2="1054.3203"/><polygon fill="#333333" points="150.376,1044.3203,154.376,1054.3203,158.376,1044.3203,154.376,1048.3203" style="stroke:#333333;stroke-width:1;"/><line style="stroke:#333333;stroke-width:1;" x1="154.376" x2="154.376" y1="938.9063" y2="1000.3516"/><polygon fill="#333333" points="150.376,990.3516,154.376,1000.3516,158.376,990.3516,154.376,994.3516" style="stroke:#333333;stroke-width:1;"/><?plantuml-src VLHXRzf84FtEhnWvqWbqnI90rTRHLGeERYD14q6QVZYTgeqzs2liNNTtZPkhyjyxkpQ9IKduWkttTkRDcvdLMovAfbW1TopUfafM8WbbBXNK6JVOquzunaHIAsuC2jYmN7SndR54rboaVo3dIicw2NWoSRyk61k-u-P-zYprIJIAfj7xOqof4bGjQnnEvcz77TONQV3FM57q8Pm-PtNZHBDmDBxezGmtESB5-leUhah32_u_CrmAkEObvbnW02ia8N2UeZ3mDomlhrTNkt6lHt7fhALwfpxCnOuhAGfBMgEfIWz-zG22XMI91U6MASxkSjJGzr7i1cSM3QNOyBHI2Cl59fSrp7-MgBYDOd51ea7nD3Fq0k1PbSDM9QhX9oL_U0wP2niQpYiZXpUAnROf_OLCDSXEJGFYeaXSsCFiYoNqRJHOvAnWCF4dWoFvFzCJw18n0Iusg534w83-kz4CRb5fIaCobZB1_23Pmu5TOxzryo-uO8R11MwuS5Xhclk0S2DbJdOjPRo5RtnB3KauSy8iwT8UOJavqUtG4TbhdWfcgCm0l1yLQYTY-16Oq3Mgna2NAe1_DJ8LPz_hVRR_kbKupnGoYcvrQpJwI3hodml2o1N0dwmegUS3XzpQDQ7lquFldOvqQWyhRMG1IpIAnyTc8NQ4xuKZD4M46SPR3NpJbWO5Ct5c9ouwXO__mCX_-qfN9ZxSP7Yu10ifIsf0C_A3jZiTunzdiMsAtS4IlCD5KZ96JI9MM99t6ZQqVb_89egXsvWKTMsmXDC0Pb8QRHGh8S9wkCwaeQLet3fpp6T604HS91hkgB6Fli96aNdxJhGy8sbiuxnAaFx1KAqbiSe6xdJ1LR9ND0vi0QNK29U2T5MnBUebAPzGeABvq22mRiDJigTpBQ-FVkg3DqE8xJpn7NflcbSfOgxH6xmgQXB0VCVooavYI3SqJ-Zf1KchIcXWRjse6Uq8LffkY9PWbNObqbRkRNnLn3I0hwLD3EjOAfV-ePtXDUP82pcpBI7tKhg0ZorAPkijxhXe1gNc9hDjSM16D7kSohJLMLpRD2_FxzI7gygKbMd7D2JpxMsqdz7awO88LiYIUpU892zf2Z_hFVm6?></g></svg>