<?plantuml 1.2026.2beta3?><svg xmlns="http://www.w3.org/2000/svg" xmlns:xlink="http://www.w3.org/1999/xlink" contentStyleType="text/css" data-diagram-type="ACTIVITY" height="2116px" preserveAspectRatio="none" style="width:628px;height:2116px;background:#FFFFFF;" version="1.1" viewBox="0 0 628 2116" width="628px" zoomAndPan="magnify"><title>DSPy Airline Agent Pipeline (ReAct + MLflow)</title><defs/><g><rect fill="#FFFFCC" height="91.5625" rx="2.5" ry="2.5" style="stroke:#FFDD88;stroke-width:3;" width="617.0508" x="5" y="5"/><text fill="#000000" font-family="monospace" font-size="10" lengthAdjust="spacing" textLength="355.21" x="10" y="20">Please&#160;use&#160;'!option&#160;handwritten&#160;true'&#160;to&#160;enable&#160;handwritten</text><text fill="#000000" font-family="monospace" font-size="10" lengthAdjust="spacing" textLength="602.0508" x="10" y="41.6406">You&#160;should&#160;use&#160;a&#160;bracket&#160;({)&#160;when&#160;defining&#160;your&#160;container&#160;'group'&#160;ReAct&#160;Loop&#160;(Auto-Traced&#160;by&#160;MLflow)</text><text fill="#000000" font-family="monospace" font-size="10" lengthAdjust="spacing" textLength="307.0459" x="10" y="63.2813">You&#160;should&#160;use&#160;a&#160;bracket&#160;(})&#160;instead&#160;of&#160;'end&#160;group'</text><text fill="#000000" font-family="monospace" font-size="10" lengthAdjust="spacing" textLength="541.8457" x="10" y="84.9219">You&#160;should&#160;use&#160;a&#160;bracket&#160;({)&#160;when&#160;defining&#160;your&#160;container&#160;'group'&#160;ReAct&#160;Loop&#160;(Auto-Traced)</text><g class="title" data-source-line="10"><text fill="#000000" font-family="sans-serif" font-size="14" font-weight="bold" lengthAdjust="spacing" textLength="359.502" x="78.4778" y="134.5576">DSPy Airline Agent Pipeline (ReAct + MLflow)</text></g><rect fill="none" height="243.4688" style="stroke:#000000;stroke-width:1.5;" width="452.0151" x="56.4424" y="149.8594"/><path d="M219.1504,149.8594 L219.1504,159.1563 L209.1504,169.1563 L56.4424,169.1563" fill="none" style="stroke:#000000;stroke-width:1.5;"/><text fill="#000000" font-family="sans-serif" font-size="14" lengthAdjust="spacing" textLength="152.708" x="59.4424" y="163.8545">1. Environment Setup</text><rect fill="#F0F4F8" height="33.9688" rx="12.5" ry="12.5" style="stroke:#2C3E50;stroke-width:0.5;" width="173.7676" x="86.1885" y="179.1563"/><text fill="#000000" font-family="sans-serif" font-size="12" lengthAdjust="spacing" textLength="153.7676" x="96.1885" y="200.2949">Load Env Variables (.env)</text><path d="M291.6426,229.9766 L291.6426,246.1094 L271.6426,250.1094 L291.6426,254.1094 L291.6426,270.2422 A0,0 0 0 0 291.6426,270.2422 L498.4575,270.2422 A0,0 0 0 0 498.4575,270.2422 L498.4575,239.9766 L488.4575,229.9766 L291.6426,229.9766 A0,0 0 0 0 291.6426,229.9766" fill="#FFF9C4" style="stroke:#FBC02D;stroke-width:0.5;"/><path d="M488.4575,229.9766 L488.4575,239.9766 L498.4575,239.9766 L488.4575,229.9766" fill="#FFF9C4" style="stroke:#FBC02D;stroke-width:0.5;"/><text fill="#000000" font-family="sans-serif" font-size="13" lengthAdjust="spacing" textLength="185.8149" x="297.6426" y="247.0435">"DSPy-Airline-Agent-Gemini"</text><text fill="#000000" font-family="sans-serif" font-size="13" lengthAdjust="spacing" textLength="141.502" x="297.6426" y="262.1763">mlflow.dspy.autolog()</text><rect fill="#F0F4F8" height="33.9688" rx="12.5" ry="12.5" style="stroke:#2C3E50;stroke-width:0.5;" width="197.1406" x="74.502" y="233.125"/><text fill="#000000" font-family="sans-serif" font-size="12" lengthAdjust="spacing" textLength="177.1406" x="84.502" y="254.2637">Configure MLflow Experiment</text><rect fill="#F0F4F8" height="33.9688" rx="12.5" ry="12.5" style="stroke:#2C3E50;stroke-width:0.5;" width="213.2598" x="66.4424" y="290.2422"/><text fill="#000000" font-family="sans-serif" font-size="12" lengthAdjust="spacing" textLength="193.2598" x="76.4424" y="311.3809">Configure LM (Gemini 2.5 Flash)</text><path d="M279.373,341.0625 L279.373,357.1953 L259.373,361.1953 L279.373,365.1953 L279.373,381.3281 A0,0 0 0 0 279.373,381.3281 L481.7256,381.3281 A0,0 0 0 0 481.7256,381.3281 L481.7256,351.0625 L471.7256,341.0625 L279.373,341.0625 A0,0 0 0 0 279.373,341.0625" fill="#FFF9C4" style="stroke:#FBC02D;stroke-width:0.5;"/><path d="M471.7256,341.0625 L471.7256,351.0625 L481.7256,351.0625 L471.7256,341.0625" fill="#FFF9C4" style="stroke:#FBC02D;stroke-width:0.5;"/><text fill="#000000" font-family="sans-serif" font-size="13" lengthAdjust="spacing" textLength="152.8643" x="285.373" y="358.1294">USER_DB, FLIGHTS_DB,</text><text fill="#000000" font-family="sans-serif" font-size="13" lengthAdjust="spacing" textLength="181.3525" x="285.373" y="373.2622">ITINERARY_DB, TICKETS_DB</text><rect fill="#F0F4F8" height="33.9688" rx="12.5" ry="12.5" style="stroke:#2C3E50;stroke-width:0.5;" width="172.6016" x="86.7715" y="344.2109"/><text fill="#000000" font-family="sans-serif" font-size="12" lengthAdjust="spacing" textLength="152.6016" x="96.7715" y="365.3496">Initialize Mock Databases</text><rect fill="none" height="264.6094" style="stroke:#000000;stroke-width:1.5;" width="441.2998" x="57.5117" y="403.3281"/><path d="M199.001,403.3281 L199.001,412.625 L189.001,422.625 L57.5117,422.625" fill="none" style="stroke:#000000;stroke-width:1.5;"/><text fill="#000000" font-family="sans-serif" font-size="14" lengthAdjust="spacing" textLength="131.4893" x="60.5117" y="417.3232">2. Agent Definition</text><path d="M298.6328,432.625 L298.6328,471.457 L278.6328,475.457 L298.6328,479.457 L298.6328,518.2891 A0,0 0 0 0 298.6328,518.2891 L469.3994,518.2891 A0,0 0 0 0 469.3994,518.2891 L469.3994,442.625 L459.3994,432.625 L298.6328,432.625 A0,0 0 0 0 298.6328,432.625" fill="#FFF9C4" style="stroke:#FBC02D;stroke-width:0.5;"/><path d="M459.3994,432.625 L459.3994,442.625 L469.3994,442.625 L459.3994,432.625" fill="#FFF9C4" style="stroke:#FBC02D;stroke-width:0.5;"/><text fill="#000000" font-family="sans-serif" font-size="13" lengthAdjust="spacing" textLength="98.9536" x="304.6328" y="449.6919">- search_flights</text><text fill="#000000" font-family="sans-serif" font-size="13" lengthAdjust="spacing" textLength="109.8716" x="304.6328" y="464.8247">- pick_best_flight</text><text fill="#000000" font-family="sans-serif" font-size="13" lengthAdjust="spacing" textLength="95.9067" x="304.6328" y="479.9575">- get_user_info</text><text fill="#000000" font-family="sans-serif" font-size="13" lengthAdjust="spacing" textLength="80.3994" x="304.6328" y="495.0903">- book_flight</text><text fill="#000000" font-family="sans-serif" font-size="13" lengthAdjust="spacing" textLength="149.7666" x="304.6328" y="510.2231">- create_support_ticket</text><rect fill="#F0F4F8" height="33.9688" rx="12.5" ry="12.5" style="stroke:#2C3E50;stroke-width:0.5;" width="211.1211" x="67.5117" y="458.4727"/><text fill="#000000" font-family="sans-serif" font-size="12" lengthAdjust="spacing" textLength="191.1211" x="77.5117" y="479.6113">Define Tools (Python Functions)</text><path d="M253.6416,535.1406 L253.6416,551.2734 L233.6416,555.2734 L253.6416,559.2734 L253.6416,575.4063 A0,0 0 0 0 253.6416,575.4063 L488.8115,575.4063 A0,0 0 0 0 488.8115,575.4063 L488.8115,545.1406 L478.8115,535.1406 L253.6416,535.1406 A0,0 0 0 0 253.6416,535.1406" fill="#FFF9C4" style="stroke:#FBC02D;stroke-width:0.5;"/><path d="M478.8115,535.1406 L478.8115,545.1406 L488.8115,545.1406 L478.8115,535.1406" fill="#FFF9C4" style="stroke:#FBC02D;stroke-width:0.5;"/><text fill="#000000" font-family="sans-serif" font-size="13" lengthAdjust="spacing" textLength="142.7905" x="259.6416" y="552.2075">AirlineAgentSignature</text><text fill="#000000" font-family="sans-serif" font-size="13" lengthAdjust="spacing" textLength="214.1699" x="259.6416" y="567.3403">"user_request -&gt; process_result"</text><rect fill="#F0F4F8" height="33.9688" rx="12.5" ry="12.5" style="stroke:#2C3E50;stroke-width:0.5;" width="121.1387" x="112.5029" y="538.2891"/><text fill="#000000" font-family="sans-serif" font-size="12" lengthAdjust="spacing" textLength="101.1387" x="122.5029" y="559.4277">Define Signature</text><path d="M271.4307,585.4063 L271.4307,616.6719 L251.4307,620.6719 L271.4307,624.6719 L271.4307,655.9375 A0,0 0 0 0 271.4307,655.9375 L427.4834,655.9375 A0,0 0 0 0 427.4834,655.9375 L427.4834,595.4063 L417.4834,585.4063 L271.4307,585.4063 A0,0 0 0 0 271.4307,585.4063" fill="#FFF9C4" style="stroke:#FBC02D;stroke-width:0.5;"/><path d="M417.4834,585.4063 L417.4834,595.4063 L427.4834,595.4063 L417.4834,585.4063" fill="#FFF9C4" style="stroke:#FBC02D;stroke-width:0.5;"/><text fill="#000000" font-family="sans-serif" font-size="13" lengthAdjust="spacing" textLength="135.0527" x="277.4307" y="602.4731">agent = dspy.ReAct(</text><text fill="#000000" font-family="sans-serif" font-size="13" lengthAdjust="spacing" textLength="68.9546" x="285.6953" y="617.606">tools=[...],</text><text fill="#000000" font-family="sans-serif" font-size="13" lengthAdjust="spacing" textLength="91.0825" x="285.6953" y="632.7388">max_iters=10</text><text fill="#000000" font-family="sans-serif" font-size="13" lengthAdjust="spacing" textLength="5.0718" x="277.4307" y="647.8716">)</text><rect fill="#F0F4F8" height="33.9688" rx="12.5" ry="12.5" style="stroke:#2C3E50;stroke-width:0.5;" width="156.7168" x="94.7139" y="603.6875"/><text fill="#000000" font-family="sans-serif" font-size="12" lengthAdjust="spacing" textLength="136.7168" x="104.7139" y="624.8262">Initialize ReAct Module</text><rect fill="none" height="876.9268" style="stroke:#000000;stroke-width:1.5;" width="295.293" x="25.4258" y="678.7393"/><path d="M306.0469,678.7393 L306.0469,688.0361 L296.0469,698.0361 L25.4258,698.0361" fill="none" style="stroke:#000000;stroke-width:1.5;"/><text fill="#000000" font-family="sans-serif" font-size="14" lengthAdjust="spacing" textLength="270.6211" x="28.4258" y="692.7344">3. Execution (Standard Case: Booking)</text><rect fill="#F0F4F8" height="33.9688" rx="12.5" ry="12.5" style="stroke:#2C3E50;stroke-width:0.5;" width="260.7266" x="42.709" y="715.0361"/><text fill="#000000" font-family="sans-serif" font-size="12" lengthAdjust="spacing" textLength="240.7266" x="52.709" y="736.1748">Input: "Book SFO-JFK, Feb 10, john_doe"</text><rect fill="none" height="675.9219" style="stroke:#000000;stroke-width:1.5;" width="275.1719" x="35.4863" y="759.8066"/><path d="M300.6582,759.8066 L300.6582,769.1035 L290.6582,779.1035 L35.4863,779.1035" fill="none" style="stroke:#000000;stroke-width:1.5;"/><text fill="#000000" font-family="sans-serif" font-size="14" lengthAdjust="spacing" textLength="255.1719" x="38.4863" y="773.8018">ReAct Loop (Auto-Traced by MLflow)</text><rect fill="#F0F4F8" height="33.9688" rx="12.5" ry="12.5" style="stroke:#2C3E50;stroke-width:0.5;" width="209.7148" x="68.2148" y="796.1035"/><text fill="#000000" font-family="sans-serif" font-size="12" lengthAdjust="spacing" textLength="189.7148" x="78.2148" y="817.2422">Thought: Need to search flights</text><rect fill="#F0F4F8" height="33.9688" rx="12.5" ry="12.5" style="stroke:#2C3E50;stroke-width:0.5;" width="214.7422" x="65.7012" y="850.0723"/><text fill="#000000" font-family="sans-serif" font-size="12" lengthAdjust="spacing" textLength="194.7422" x="75.7012" y="871.2109">Tool: search_flights(SFO, JFK, ...)</text><rect fill="#F0F4F8" height="33.9688" rx="12.5" ry="12.5" style="stroke:#2C3E50;stroke-width:0.5;" width="197.1406" x="74.502" y="904.041"/><text fill="#000000" font-family="sans-serif" font-size="12" lengthAdjust="spacing" textLength="177.1406" x="84.502" y="925.1797">Observation: [AA101, UA202]</text><rect fill="#F0F4F8" height="33.9688" rx="12.5" ry="12.5" style="stroke:#2C3E50;stroke-width:0.5;" width="189.4121" x="78.3662" y="958.0098"/><text fill="#000000" font-family="sans-serif" font-size="12" lengthAdjust="spacing" textLength="169.4121" x="88.3662" y="979.1484">Thought: Pick shortest flight</text><rect fill="#F0F4F8" height="33.9688" rx="12.5" ry="12.5" style="stroke:#2C3E50;stroke-width:0.5;" width="167.2871" x="89.4287" y="1011.9785"/><text fill="#000000" font-family="sans-serif" font-size="12" lengthAdjust="spacing" textLength="147.2871" x="99.4287" y="1033.1172">Tool: pick_best_flight(...)</text><rect fill="#F0F4F8" height="33.9688" rx="12.5" ry="12.5" style="stroke:#2C3E50;stroke-width:0.5;" width="140.8262" x="102.6592" y="1065.9473"/><text fill="#000000" font-family="sans-serif" font-size="12" lengthAdjust="spacing" textLength="120.8262" x="112.6592" y="1087.0859">Observation: UA202</text><rect fill="#F0F4F8" height="33.9688" rx="12.5" ry="12.5" style="stroke:#2C3E50;stroke-width:0.5;" width="175.9238" x="85.1104" y="1119.916"/><text fill="#000000" font-family="sans-serif" font-size="12" lengthAdjust="spacing" textLength="155.9238" x="95.1104" y="1141.0547">Thought: Need user email</text><rect fill="#F0F4F8" height="33.9688" rx="12.5" ry="12.5" style="stroke:#2C3E50;stroke-width:0.5;" width="208.2207" x="68.9619" y="1173.8848"/><text fill="#000000" font-family="sans-serif" font-size="12" lengthAdjust="spacing" textLength="188.2207" x="78.9619" y="1195.0234">Tool: get_user_info("john_doe")</text><rect fill="#F0F4F8" height="33.9688" rx="12.5" ry="12.5" style="stroke:#2C3E50;stroke-width:0.5;" width="220.1211" x="63.0117" y="1227.8535"/><text fill="#000000" font-family="sans-serif" font-size="12" lengthAdjust="spacing" textLength="200.1211" x="73.0117" y="1248.9922">Observation: john@example.com</text><rect fill="#F0F4F8" height="33.9688" rx="12.5" ry="12.5" style="stroke:#2C3E50;stroke-width:0.5;" width="164.3867" x="90.8789" y="1281.8223"/><text fill="#000000" font-family="sans-serif" font-size="12" lengthAdjust="spacing" textLength="144.3867" x="100.8789" y="1302.9609">Thought: Ready to book</text><rect fill="#F0F4F8" height="33.9688" rx="12.5" ry="12.5" style="stroke:#2C3E50;stroke-width:0.5;" width="187.6074" x="79.2686" y="1335.791"/><text fill="#000000" font-family="sans-serif" font-size="12" lengthAdjust="spacing" textLength="167.6074" x="89.2686" y="1356.9297">Tool: book_flight(UA202, ...)</text><rect fill="#F0F4F8" height="33.9688" rx="12.5" ry="12.5" style="stroke:#2C3E50;stroke-width:0.5;" width="169.502" x="88.3213" y="1389.7598"/><text fill="#000000" font-family="sans-serif" font-size="12" lengthAdjust="spacing" textLength="149.502" x="98.3213" y="1410.8984">Observation: CONF-1001</text><rect fill="#F0F4F8" height="33.9688" rx="12.5" ry="12.5" style="stroke:#2C3E50;stroke-width:0.5;" width="275.293" x="35.4258" y="1455.7285"/><text fill="#000000" font-family="sans-serif" font-size="12" lengthAdjust="spacing" textLength="255.293" x="45.4258" y="1476.8672">Output: "Booking confirmed (CONF-1001)"</text><rect fill="#F0F4F8" height="33.9688" rx="12.5" ry="12.5" style="stroke:#2C3E50;stroke-width:0.5;" width="153.9277" x="96.1084" y="1509.6973"/><text fill="#000000" font-family="sans-serif" font-size="12" lengthAdjust="spacing" textLength="133.9277" x="106.1084" y="1530.8359">Update ITINERARY_DB</text><rect fill="none" height="390.4063" style="stroke:#000000;stroke-width:1.5;" width="324.1445" x="11" y="1565.666"/><path d="M261.7686,1565.666 L261.7686,1574.9629 L251.7686,1584.9629 L11,1584.9629" fill="none" style="stroke:#000000;stroke-width:1.5;"/><text fill="#000000" font-family="sans-serif" font-size="14" lengthAdjust="spacing" textLength="240.7686" x="14" y="1579.6611">4. Execution (Edge Case: Support)</text><rect fill="#F0F4F8" height="33.9688" rx="12.5" ry="12.5" style="stroke:#2C3E50;stroke-width:0.5;" width="304.1445" x="21" y="1601.9629"/><text fill="#000000" font-family="sans-serif" font-size="12" lengthAdjust="spacing" textLength="284.1445" x="31" y="1623.1016">Input: "Upgrade seat on AA101 (System Error)"</text><rect fill="none" height="190.2031" style="stroke:#000000;stroke-width:1.5;" width="243.4199" x="51.3623" y="1645.9316"/><path d="M241.749,1645.9316 L241.749,1655.2285 L231.749,1665.2285 L51.3623,1665.2285" fill="none" style="stroke:#000000;stroke-width:1.5;"/><text fill="#000000" font-family="sans-serif" font-size="14" lengthAdjust="spacing" textLength="180.3867" x="54.3623" y="1659.9268">ReAct Loop (Auto-Traced)</text><rect fill="#F0F4F8" height="33.9688" rx="12.5" ry="12.5" style="stroke:#2C3E50;stroke-width:0.5;" width="223.4199" x="61.3623" y="1682.2285"/><text fill="#000000" font-family="sans-serif" font-size="12" lengthAdjust="spacing" textLength="203.4199" x="71.3623" y="1703.3672">Thought: Cannot upgrade directly</text><rect fill="#F0F4F8" height="33.9688" rx="12.5" ry="12.5" style="stroke:#2C3E50;stroke-width:0.5;" width="204.1133" x="71.0156" y="1736.1973"/><text fill="#000000" font-family="sans-serif" font-size="12" lengthAdjust="spacing" textLength="184.1133" x="81.0156" y="1757.3359">Tool: create_support_ticket(...)</text><rect fill="#F0F4F8" height="33.9688" rx="12.5" ry="12.5" style="stroke:#2C3E50;stroke-width:0.5;" width="177.8281" x="84.1582" y="1790.166"/><text fill="#000000" font-family="sans-serif" font-size="12" lengthAdjust="spacing" textLength="157.8281" x="94.1582" y="1811.3047">Observation: TICKET-5001</text><rect fill="#F0F4F8" height="33.9688" rx="12.5" ry="12.5" style="stroke:#2C3E50;stroke-width:0.5;" width="256.7422" x="44.7012" y="1856.1348"/><text fill="#000000" font-family="sans-serif" font-size="12" lengthAdjust="spacing" textLength="236.7422" x="54.7012" y="1877.2734">Output: "Ticket created (TICKET-5001)"</text><rect fill="#F0F4F8" height="33.9688" rx="12.5" ry="12.5" style="stroke:#2C3E50;stroke-width:0.5;" width="140.3926" x="102.876" y="1910.1035"/><text fill="#000000" font-family="sans-serif" font-size="12" lengthAdjust="spacing" textLength="120.3926" x="112.876" y="1931.2422">Update TICKETS_DB</text><rect fill="none" height="139.3828" style="stroke:#000000;stroke-width:1.5;" width="359.7285" x="89.999" y="1966.0723"/><path d="M188.0254,1966.0723 L188.0254,1975.3691 L178.0254,1985.3691 L89.999,1985.3691" fill="none" style="stroke:#000000;stroke-width:1.5;"/><text fill="#000000" font-family="sans-serif" font-size="14" lengthAdjust="spacing" textLength="88.0264" x="92.999" y="1980.0674">5. Validation</text><rect fill="#F0F4F8" height="33.9688" rx="12.5" ry="12.5" style="stroke:#2C3E50;stroke-width:0.5;" width="146.1465" x="99.999" y="2002.3691"/><text fill="#000000" font-family="sans-serif" font-size="12" lengthAdjust="spacing" textLength="126.1465" x="109.999" y="2023.5078">Check MLflow Traces</text><path d="M265.3047,2053.1895 L265.3047,2069.3223 L245.3047,2073.3223 L265.3047,2077.3223 L265.3047,2093.4551 A0,0 0 0 0 265.3047,2093.4551 L439.7275,2093.4551 A0,0 0 0 0 439.7275,2093.4551 L439.7275,2063.1895 L429.7275,2053.1895 L265.3047,2053.1895 A0,0 0 0 0 265.3047,2053.1895" fill="#FFF9C4" style="stroke:#FBC02D;stroke-width:0.5;"/><path d="M429.7275,2053.1895 L429.7275,2063.1895 L439.7275,2063.1895 L429.7275,2053.1895" fill="#FFF9C4" style="stroke:#FBC02D;stroke-width:0.5;"/><text fill="#000000" font-family="sans-serif" font-size="13" lengthAdjust="spacing" textLength="153.4229" x="271.3047" y="2070.2563">1 Booking (CONF-1001)</text><text fill="#000000" font-family="sans-serif" font-size="13" lengthAdjust="spacing" textLength="149.3096" x="271.3047" y="2085.3892">1 Ticket (TICKET-5001)</text><rect fill="#F0F4F8" height="33.9688" rx="12.5" ry="12.5" style="stroke:#2C3E50;stroke-width:0.5;" width="144.4648" x="100.8398" y="2056.3379"/><text fill="#000000" font-family="sans-serif" font-size="12" lengthAdjust="spacing" textLength="124.4648" x="110.8398" y="2077.4766">Print Database State</text><line style="stroke:#333333;stroke-width:1;" x1="173.0723" x2="173.0723" y1="213.125" y2="233.125"/><polygon fill="#333333" points="169.0723,223.125,173.0723,233.125,177.0723,223.125,173.0723,227.125" style="stroke:#333333;stroke-width:1;"/><line style="stroke:#333333;stroke-width:1;" x1="173.0723" x2="173.0723" y1="267.0938" y2="290.2422"/><polygon fill="#333333" points="169.0723,280.2422,173.0723,290.2422,177.0723,280.2422,173.0723,284.2422" style="stroke:#333333;stroke-width:1;"/><line style="stroke:#333333;stroke-width:1;" x1="173.0723" x2="173.0723" y1="324.2109" y2="344.2109"/><polygon fill="#333333" points="169.0723,334.2109,173.0723,344.2109,177.0723,334.2109,173.0723,338.2109" style="stroke:#333333;stroke-width:1;"/><line style="stroke:#333333;stroke-width:1;" x1="173.0723" x2="173.0723" y1="492.4414" y2="538.2891"/><polygon fill="#333333" points="169.0723,528.2891,173.0723,538.2891,177.0723,528.2891,173.0723,532.2891" style="stroke:#333333;stroke-width:1;"/><line style="stroke:#333333;stroke-width:1;" x1="173.0723" x2="173.0723" y1="572.2578" y2="603.6875"/><polygon fill="#333333" points="169.0723,593.6875,173.0723,603.6875,177.0723,593.6875,173.0723,597.6875" style="stroke:#333333;stroke-width:1;"/><line style="stroke:#333333;stroke-width:1;" x1="173.0723" x2="173.0723" y1="378.1797" y2="458.4727"/><polygon fill="#333333" points="169.0723,448.4727,173.0723,458.4727,177.0723,448.4727,173.0723,452.4727" style="stroke:#333333;stroke-width:1;"/><line style="stroke:#333333;stroke-width:1;" x1="173.0723" x2="173.0723" y1="830.0723" y2="850.0723"/><polygon fill="#333333" points="169.0723,840.0723,173.0723,850.0723,177.0723,840.0723,173.0723,844.0723" style="stroke:#333333;stroke-width:1;"/><line style="stroke:#333333;stroke-width:1;" x1="173.0723" x2="173.0723" y1="884.041" y2="904.041"/><polygon fill="#333333" points="169.0723,894.041,173.0723,904.041,177.0723,894.041,173.0723,898.041" style="stroke:#333333;stroke-width:1;"/><line style="stroke:#333333;stroke-width:1;" x1="173.0723" x2="173.0723" y1="938.0098" y2="958.0098"/><polygon fill="#333333" points="169.0723,948.0098,173.0723,958.0098,177.0723,948.0098,173.0723,952.0098" style="stroke:#333333;stroke-width:1;"/><line style="stroke:#333333;stroke-width:1;" x1="173.0723" x2="173.0723" y1="991.9785" y2="1011.9785"/><polygon fill="#333333" points="169.0723,1001.9785,173.0723,1011.9785,177.0723,1001.9785,173.0723,1005.9785" style="stroke:#333333;stroke-width:1;"/><line style="stroke:#333333;stroke-width:1;" x1="173.0723" x2="173.0723" y1="1045.9473" y2="1065.9473"/><polygon fill="#333333" points="169.0723,1055.9473,173.0723,1065.9473,177.0723,1055.9473,173.0723,1059.9473" style="stroke:#333333;stroke-width:1;"/><line style="stroke:#333333;stroke-width:1;" x1="173.0723" x2="173.0723" y1="1099.916" y2="1119.916"/><polygon fill="#333333" points="169.0723,1109.916,173.0723,1119.916,177.0723,1109.916,173.0723,1113.916" style="stroke:#333333;stroke-width:1;"/><line style="stroke:#333333;stroke-width:1;" x1="173.0723" x2="173.0723" y1="1153.8848" y2="1173.8848"/><polygon fill="#333333" points="169.0723,1163.8848,173.0723,1173.8848,177.0723,1163.8848,173.0723,1167.8848" style="stroke:#333333;stroke-width:1;"/><line style="stroke:#333333;stroke-width:1;" x1="173.0723" x2="173.0723" y1="1207.8535" y2="1227.8535"/><polygon fill="#333333" points="169.0723,1217.8535,173.0723,1227.8535,177.0723,1217.8535,173.0723,1221.8535" style="stroke:#333333;stroke-width:1;"/><line style="stroke:#333333;stroke-width:1;" x1="173.0723" x2="173.0723" y1="1261.8223" y2="1281.8223"/><polygon fill="#333333" points="169.0723,1271.8223,173.0723,1281.8223,177.0723,1271.8223,173.0723,1275.8223" style="stroke:#333333;stroke-width:1;"/><line style="stroke:#333333;stroke-width:1;" x1="173.0723" x2="173.0723" y1="1315.791" y2="1335.791"/><polygon fill="#333333" points="169.0723,1325.791,173.0723,1335.791,177.0723,1325.791,173.0723,1329.791" style="stroke:#333333;stroke-width:1;"/><line style="stroke:#333333;stroke-width:1;" x1="173.0723" x2="173.0723" y1="1369.7598" y2="1389.7598"/><polygon fill="#333333" points="169.0723,1379.7598,173.0723,1389.7598,177.0723,1379.7598,173.0723,1383.7598" style="stroke:#333333;stroke-width:1;"/><line style="stroke:#333333;stroke-width:1;" x1="173.0723" x2="173.0723" y1="749.0049" y2="796.1035"/><polygon fill="#333333" points="169.0723,786.1035,173.0723,796.1035,177.0723,786.1035,173.0723,790.1035" style="stroke:#333333;stroke-width:1;"/><line style="stroke:#333333;stroke-width:1;" x1="173.0723" x2="173.0723" y1="1423.7285" y2="1455.7285"/><polygon fill="#333333" points="169.0723,1445.7285,173.0723,1455.7285,177.0723,1445.7285,173.0723,1449.7285" style="stroke:#333333;stroke-width:1;"/><line style="stroke:#333333;stroke-width:1;" x1="173.0723" x2="173.0723" y1="1489.6973" y2="1509.6973"/><polygon fill="#333333" points="169.0723,1499.6973,173.0723,1509.6973,177.0723,1499.6973,173.0723,1503.6973" style="stroke:#333333;stroke-width:1;"/><line style="stroke:#333333;stroke-width:1;" x1="173.0723" x2="173.0723" y1="637.6563" y2="715.0361"/><polygon fill="#333333" points="169.0723,705.0361,173.0723,715.0361,177.0723,705.0361,173.0723,709.0361" style="stroke:#333333;stroke-width:1;"/><line style="stroke:#333333;stroke-width:1;" x1="173.0723" x2="173.0723" y1="1716.1973" y2="1736.1973"/><polygon fill="#333333" points="169.0723,1726.1973,173.0723,1736.1973,177.0723,1726.1973,173.0723,1730.1973" style="stroke:#333333;stroke-width:1;"/><line style="stroke:#333333;stroke-width:1;" x1="173.0723" x2="173.0723" y1="1770.166" y2="1790.166"/><polygon fill="#333333" points="169.0723,1780.166,173.0723,1790.166,177.0723,1780.166,173.0723,1784.166" style="stroke:#333333;stroke-width:1;"/><line style="stroke:#333333;stroke-width:1;" x1="173.0723" x2="173.0723" y1="1635.9316" y2="1682.2285"/><polygon fill="#333333" points="169.0723,1672.2285,173.0723,1682.2285,177.0723,1672.2285,173.0723,1676.2285" style="stroke:#333333;stroke-width:1;"/><line style="stroke:#333333;stroke-width:1;" x1="173.0723" x2="173.0723" y1="1824.1348" y2="1856.1348"/><polygon fill="#333333" points="169.0723,1846.1348,173.0723,1856.1348,177.0723,1846.1348,173.0723,1850.1348" style="stroke:#333333;stroke-width:1;"/><line style="stroke:#333333;stroke-width:1;" x1="173.0723" x2="173.0723" y1="1890.1035" y2="1910.1035"/><polygon fill="#333333" points="169.0723,1900.1035,173.0723,1910.1035,177.0723,1900.1035,173.0723,1904.1035" style="stroke:#333333;stroke-width:1;"/><line style="stroke:#333333;stroke-width:1;" x1="173.0723" x2="173.0723" y1="1543.666" y2="1601.9629"/><polygon fill="#333333" points="169.0723,1591.9629,173.0723,1601.9629,177.0723,1591.9629,173.0723,1595.9629" style="stroke:#333333;stroke-width:1;"/><line style="stroke:#333333;stroke-width:1;" x1="173.0723" x2="173.0723" y1="2036.3379" y2="2056.3379"/><polygon fill="#333333" points="169.0723,2046.3379,173.0723,2056.3379,177.0723,2046.3379,173.0723,2050.3379" style="stroke:#333333;stroke-width:1;"/><line style="stroke:#333333;stroke-width:1;" x1="173.0723" x2="173.0723" y1="1944.0723" y2="2002.3691"/><polygon fill="#333333" points="169.0723,1992.3691,173.0723,2002.3691,177.0723,1992.3691,173.0723,1996.3691" style="stroke:#333333;stroke-width:1;"/><?plantuml-src ZLLHR-9647xdLuou5wC62qWYjOvIbHXyfKSI1AHITJgXnHvWYzdrhTSXjEf_x-nwBsSJHst4GpmpE_FDDz_EvdikCgRO0TOitc-LB4GIobGgEEwunbR-wjynaHmLrne5R5YQLttvZYNooCNsZMUeb3oM2JzSsh-gCzRycUlJtLdf3r4lkef-R8gKAa7beWRXvVYwLubwa1hVvegYdyAhywXgdkWkx0r6hPRcEaKOBMOd67ALSe4mtABGCECPsazlZeG4Ve3xwIQLnqwhHIdf69S2sdqVnkAPAoaEvj02TP6ruUyMG32LB35E-9qfpjOfvk3vA9uxDyORIh7XsqAXImlZbmmLDrcCNn1UK7oxq_G1q3O0kmvWrmBiViG35xnj_OVKvF2JF3lvhD3KujRha0T5ObFLAqxlmIjFmy2_XYXb-Qv4DH7K5qlvNmHBndiOCStMBCUy0TFJOZnVZUuk89fEFlwwNDZ_hMUod3oCvyFv7zQqd8IVnjPT1VHFZSQ1xrWVuOOBQtGiMWF2KigK-9kTz8xYeqB49YRlDE3gGevCnRlL9ZMst1ap7kzNQyoriplp5lMgo56jkDX8PrjBkQz7nGgPnbLUP9bKUgKf5-fgEnMe2xuLJ1FF3TZS16slht7bX2q8XLyBWWZTdo5JCiOy9rDUfBfzNgmogLAVzp8fqgQQp19x2rOSDjQpTW1jIBtzxFl-5pSvKX9xMT4EKFbjlsTDdVUdTadYVy6ui5_UGjEoO2g1a0GJm1sHICkXu-Ou4LcX0sWRCooYn-vlqIUI3gwXtxk0F-LEh1A9ROEVVkOoPz0kEvjAcO4t95btbuh5cC3wzEqobl8FbZjPKBy1F22vjNGI02U16nT5_GPdwl08omLOCCH3nqK-hcaQpymq5i3duR3Vwr_0qt3G6tmf8yxApaWGj1196sPwPUfQqNFrUUyLiqKQQzZMZ4e03uodjVGr5NljLpeRInZlB_Z23bcAVYmFZTNco9AJOT9SXbgjoktmBDhtcGiV7w9klzVhtpWHsRcM8muU2_rT4kOPYSs2KWVgqdizsB6A29woXEvVRR7Sd8dngYR6SR959yH5UMdFXVYKRHLBqCX10nsnGoOLdtAD1nZJ4wOw_q-ERqGOCa6t1GfN8U4AOvsUQYmsRfHtLL7kqExrVr6vj6bSSkAnSgxEvFUbVCxZjKyFLieJLbd2uGv9t-wXiatRAnNC53SxspqIG1j0DssW_hTbK1siypZ4DQIrZVCl?></g></svg>